<svg width="19" height="17" viewBox="0 0 19 17" fill="none" xmlns="http://www.w3.org/2000/svg">
<path d="M18.5189 5.24723L9.85042 0.579577C9.75332 0.527342 9.64478 0.5 9.53452 0.5C9.42426 0.5 9.31573 0.527342 9.21862 0.579577L0.550126 5.24723C0.444614 5.30399 0.356343 5.38812 0.294593 5.4908C0.232844 5.59347 0.199898 5.71088 0.199219 5.83069V11.1651C0.199148 11.2857 0.231739 11.4039 0.293528 11.5074C0.355317 11.6109 0.443993 11.6957 0.550126 11.7528L9.21862 16.4204C9.31573 16.4727 9.42426 16.5 9.53452 16.5C9.64478 16.5 9.75332 16.4727 9.85042 16.4204L18.5189 11.7528C18.6251 11.6957 18.7137 11.6109 18.7755 11.5074C18.8373 11.4039 18.8699 11.2857 18.8698 11.1651V5.83069C18.8691 5.71088 18.8362 5.59347 18.7745 5.4908C18.7127 5.38812 18.6244 5.30399 18.5189 5.24723ZM17.5362 10.0491L14.6564 8.49792L17.5362 6.94675V10.0491ZM13.2495 7.74026L10.2013 6.09908V2.2791L16.7969 5.83069L13.2495 7.74026ZM9.53452 9.74068L7.2257 8.49792L9.53452 7.25515L11.8433 8.49792L9.53452 9.74068ZM8.86772 2.2791V6.09908L5.81957 7.74026L2.27216 5.83069L8.86772 2.2791ZM1.53283 6.94675L4.41261 8.49792L1.53283 10.0491V6.94675ZM5.81957 9.25558L8.86772 10.8968V14.7167L2.27216 11.1651L5.81957 9.25558ZM10.2013 14.7167V10.8968L13.2495 9.25558L16.7969 11.1651L10.2013 14.7167Z" fill="#313743"/>
</svg>
