<svg width="19" height="14" viewBox="0 0 19 14" fill="none" xmlns="http://www.w3.org/2000/svg">
<path d="M15.6078 1.07159C14.7244 0.679042 13.8137 0.34257 12.8703 0.146294C11.8941 -0.0555888 12.1559 -0.190178 11.7032 0.740728C11.6214 0.908964 11.556 0.970651 11.3597 0.942611C10.2363 0.791199 9.11292 0.768768 7.98953 0.908964C7.48237 0.970651 7.48237 0.965043 7.25879 0.488374C7.22062 0.404256 7.17154 0.325746 7.13882 0.23602C7.06792 0.0341371 6.94795 -0.0219416 6.74072 0.0229214C5.61189 0.247236 4.52122 0.594924 3.46873 1.07159C3.33785 1.12767 3.24514 1.21179 3.16334 1.33516C1.45646 3.98208 0.518484 6.87013 0.529391 10.061C0.534844 10.5377 0.540298 11.0143 0.583924 11.491C0.594831 11.6088 0.622097 11.7041 0.720257 11.777C2.02905 12.7416 3.44692 13.4874 4.98475 13.9809C5.12109 14.0258 5.19743 13.9921 5.27923 13.8744C5.55735 13.4706 5.80821 13.0444 6.0427 12.6126C6.1245 12.4612 6.10814 12.3883 5.93908 12.3266C5.57371 12.192 5.21925 12.0125 4.88114 11.8107C4.80479 11.7658 4.63574 11.7378 4.68482 11.6312C4.75026 11.5022 4.87023 11.3732 5.05565 11.4125C5.11563 11.4237 5.17017 11.463 5.23015 11.4854C8.10951 12.7303 10.9834 12.7303 13.8573 11.4686C13.89 11.4518 13.9227 11.4405 13.9555 11.4237C14.1572 11.334 14.2881 11.4966 14.359 11.6144C14.4299 11.7321 14.2445 11.7658 14.1627 11.8107C13.83 12.0069 13.4865 12.1752 13.1266 12.3098C12.9302 12.3827 12.9302 12.4668 13.0175 12.635C13.2302 13.0276 13.4647 13.4033 13.7046 13.779C13.8246 13.9697 13.9446 14.0202 14.1681 13.9416C15.6351 13.4425 17.0039 12.736 18.2636 11.8163C18.3945 11.7209 18.4545 11.62 18.4708 11.4518C18.7762 7.75056 17.8819 4.38023 15.875 1.30712C15.8205 1.20057 15.7278 1.12767 15.6078 1.07159ZM8.15313 7.88515C8.04952 8.74316 7.54781 9.36563 6.84434 9.52265C6.74618 9.54508 6.64802 9.55069 6.62075 9.5563C5.69914 9.5563 5.00657 8.82727 4.92477 7.8515C4.84297 6.81966 5.57371 5.88875 6.49532 5.86632C7.48783 5.83828 8.28947 6.81966 8.15313 7.88515ZM13.5519 9.1357C13.0666 9.60116 12.3576 9.7021 11.7905 9.35441C11.1361 8.95065 10.858 8.31696 10.918 7.55429C10.978 6.80283 11.3215 6.23083 12.0414 5.95044C12.194 5.88875 12.3576 5.86071 12.5212 5.86632C13.1484 5.88314 13.6065 6.19158 13.9064 6.74675C14.3317 7.51503 14.1681 8.54127 13.5519 9.1357Z" fill="#313743"/>
</svg>
