<svg width="17" height="16" viewBox="0 0 17 16" fill="none" xmlns="http://www.w3.org/2000/svg">
<path d="M16.5209 5.72086C16.5061 5.01266 16.495 4.30445 16.3615 3.60367C16.0054 1.74602 14.6146 0.414897 12.7417 0.144222C11.8961 0.0218624 11.0431 0.0181546 10.1938 0.0107388C8.88095 -0.00780054 7.56806 -0.000384794 6.25887 0.0181546C5.55051 0.0292782 4.84214 0.0441097 4.14119 0.177593C2.26828 0.533549 0.936845 1.92771 0.669817 3.8076C0.551137 4.64929 0.54372 5.49468 0.536302 6.33637C0.521467 7.63783 0.532594 8.943 0.547428 10.2445C0.554846 10.9638 0.57339 11.6868 0.706904 12.3987C1.06294 14.2564 2.45372 15.5875 4.32663 15.8582C5.17963 15.9805 6.03635 15.9843 6.89307 15.9954C8.19483 16.0102 9.50031 15.9991 10.8021 15.9843C11.5179 15.9768 12.2336 15.9657 12.9383 15.8211C13.8506 15.632 14.6443 15.239 15.2859 14.5493C16.0648 13.715 16.3837 12.6954 16.4616 11.5867C16.5432 10.3928 16.5358 9.19143 16.5172 7.99379C16.5246 7.23738 16.5358 6.48098 16.5209 5.72086ZM15.0968 8.00862C15.0894 9.10615 15.119 10.2074 15.0523 11.3049C15.0152 11.913 14.9299 12.51 14.6295 13.0513C14.1622 13.893 13.4093 14.312 12.4821 14.4529C11.8591 14.5493 11.2286 14.5567 10.5981 14.5604C9.09605 14.5678 7.59402 14.5716 6.09569 14.553C5.48004 14.5456 4.86068 14.5382 4.25616 14.3862C3.02857 14.0821 2.24974 13.2071 2.08284 11.9464C2.00125 11.3272 1.979 10.7042 1.979 10.0813C1.97158 8.48693 1.95304 6.89255 1.99383 5.30187C2.00867 4.70491 2.0235 4.10423 2.20523 3.5258C2.54273 2.4394 3.2956 1.81276 4.39709 1.59029C5.10917 1.44569 5.83237 1.44939 6.55557 1.44569C8.0131 1.43456 9.47064 1.43456 10.9282 1.4531C11.5549 1.46052 12.1854 1.46422 12.8048 1.61996C14.0472 1.92771 14.8223 2.79164 14.9892 4.07086C15.0931 4.84951 15.0931 5.63558 15.0968 6.41794C15.1005 6.94446 15.0968 7.47469 15.0968 8.00862Z" fill="#313743"/>
<path d="M8.50343 3.89258C6.25594 3.89629 4.42383 5.76135 4.42383 8.03057C4.42754 10.2738 6.29303 12.1129 8.56277 12.1092C10.8066 12.1055 12.6461 10.2368 12.6424 7.97124C12.6387 5.72798 10.7732 3.88888 8.50343 3.89258ZM8.51456 10.6706C7.03107 10.6706 5.86652 9.47664 5.86652 7.96754C5.86652 6.49551 7.06815 5.33124 8.58502 5.33495C10.0277 5.33495 11.2071 6.54 11.2071 8.01203C11.2034 9.49889 10.0166 10.6706 8.51456 10.6706Z" fill="#313743"/>
<path d="M12.827 2.77646C12.2929 2.76905 11.8553 3.19545 11.8516 3.72568C11.8479 4.24849 12.2707 4.6786 12.7973 4.68602C13.3165 4.69343 13.7579 4.26703 13.7616 3.74792C13.769 3.22141 13.3462 2.78388 12.827 2.77646Z" fill="#313743"/>
</svg>
