<svg width="16" height="15" viewBox="0 0 16 15" fill="none" xmlns="http://www.w3.org/2000/svg">
<path d="M8.37265 6.35101C8.48062 6.19013 8.56752 6.03452 8.68602 5.89738C9.3075 5.16946 10.1133 4.80551 11.0534 4.73693C11.6433 4.69474 12.2279 4.74748 12.7967 4.92155C13.8369 5.23803 14.4558 5.95804 14.7639 6.9787C14.993 7.73563 15.0509 8.51365 15.0535 9.29695C15.0588 11.1458 15.0535 12.9972 15.0588 14.846C15.0588 14.9647 15.0298 14.999 14.9087 14.9963C13.966 14.991 13.0232 14.991 12.0778 14.9963C11.9646 14.9963 11.9409 14.962 11.9409 14.8565C11.9435 13.166 11.9435 11.4728 11.9435 9.78223C11.9435 9.35498 11.9145 8.93036 11.7908 8.51893C11.5959 7.86486 11.1456 7.51145 10.4636 7.47716C10.2608 7.46662 10.0606 7.47716 9.86051 7.51673C9.15476 7.65123 8.77555 8.11277 8.60175 8.78003C8.48062 9.24421 8.47272 9.71893 8.47008 10.1937C8.46745 11.7444 8.46745 13.2952 8.47272 14.8486C8.47272 14.9647 8.44638 15.0016 8.32261 15.0016C7.38249 14.9963 6.44501 14.9963 5.50489 15.0016C5.39166 15.0016 5.35742 14.9779 5.35742 14.8592C5.36006 11.6152 5.36006 8.37387 5.35742 5.1299C5.35742 5.0165 5.37849 4.9743 5.50489 4.9743C6.40024 4.97957 7.29559 4.97957 8.19094 4.9743C8.30681 4.9743 8.34895 4.99803 8.34631 5.12463C8.33841 5.48595 8.34368 5.84463 8.34368 6.20595C8.34631 6.24551 8.33315 6.29035 8.37265 6.35101Z" fill="#313743"/>
<path d="M0.301461 9.98792C0.301461 8.36593 0.304095 6.74659 0.298828 5.1246C0.298828 5.00328 0.333062 4.97163 0.451564 4.97427C1.39432 4.97954 2.33707 4.97954 3.28245 4.97427C3.39042 4.97427 3.42202 5.00064 3.42202 5.11141C3.41939 8.3633 3.41939 11.6152 3.42202 14.8644C3.42202 14.9778 3.38779 15.0016 3.28245 14.9989C2.33443 14.9937 1.38642 14.9937 0.438397 14.9989C0.314628 14.9989 0.298828 14.9594 0.298828 14.8486C0.304095 13.2292 0.301461 11.6099 0.301461 9.98792Z" fill="#313743"/>
<path d="M0.0586002 1.80133C0.0612336 0.801768 0.861782 -0.00263091 1.85457 6.46682e-06C2.85789 0.00264384 3.66634 0.807043 3.66634 1.80661C3.66634 2.81408 2.84999 3.62112 1.83087 3.61848C0.853882 3.61321 0.0559669 2.79826 0.0586002 1.80133Z" fill="#313743"/>
</svg>
