<svg width="21" height="11" viewBox="0 0 21 11" fill="none" xmlns="http://www.w3.org/2000/svg">
<path d="M11.4323 5.5089C11.4411 2.44657 9.03 0.000221252 6.00287 0.000221252C2.98454 0.000221252 0.54699 2.44657 0.529391 5.4825C0.511791 8.50083 2.97574 10.9912 5.97647 11C8.9948 11.0088 11.4235 8.56243 11.4323 5.5089Z" fill="#313743"/>
<path d="M17.5036 5.57923C17.5212 4.32086 17.3276 3.17688 16.8437 2.08571C16.6413 1.62812 16.3597 1.21453 15.9989 0.871333C15.2509 0.158549 14.3269 0.158548 13.5789 0.880133C12.8925 1.54012 12.5493 2.3673 12.3382 3.25608C11.863 5.24484 11.951 7.19839 12.8309 9.08155C13.0333 9.51274 13.3149 9.88233 13.6669 10.1991C14.3533 10.8151 15.2421 10.8063 15.9285 10.1903C16.6677 9.52154 17.0108 8.64156 17.2572 7.71758C17.4508 6.996 17.53 6.24801 17.5036 5.57923Z" fill="#313743"/>
<path d="M20.0563 5.79031C20.0563 4.14475 20.0035 2.81598 19.5987 1.53121C19.5107 1.25841 19.458 0.888819 19.0972 0.897619C18.7628 0.897619 18.71 1.25841 18.6308 1.51361C18.2612 2.62238 18.1908 3.77516 18.1556 4.93673C18.1116 6.3711 18.1908 7.80547 18.5428 9.20463C18.5956 9.43343 18.6836 9.65342 18.7892 9.85582C18.9828 10.2254 19.2204 10.2254 19.4316 9.87342C19.6163 9.55663 19.7131 9.20463 19.7835 8.84384C19.9859 7.72627 20.0739 6.60869 20.0563 5.79031Z" fill="#313743"/>
</svg>
