<svg width="20" height="17" viewBox="0 0 20 17" fill="none" xmlns="http://www.w3.org/2000/svg">
<path d="M1.28 6.8996H3.2V12.0196H1.92C1.75026 12.0196 1.58747 12.087 1.46745 12.2071C1.34743 12.3271 1.28 12.4899 1.28 12.6596C1.28 12.8293 1.34743 12.9921 1.46745 13.1122C1.58747 13.2322 1.75026 13.2996 1.92 13.2996H17.28C17.4497 13.2996 17.6125 13.2322 17.7325 13.1122C17.8526 12.9921 17.92 12.8293 17.92 12.6596C17.92 12.4899 17.8526 12.3271 17.7325 12.2071C17.6125 12.087 17.4497 12.0196 17.28 12.0196H16V6.8996H17.92C18.0593 6.89946 18.1947 6.85391 18.3057 6.76985C18.4167 6.6858 18.4973 6.56782 18.5352 6.43383C18.5731 6.29984 18.5663 6.15714 18.5157 6.02738C18.4652 5.89762 18.3737 5.78788 18.2552 5.7148L9.9352 0.594802C9.83438 0.532816 9.71835 0.5 9.6 0.5C9.48165 0.5 9.36562 0.532816 9.2648 0.594802L0.9448 5.7148C0.826262 5.78788 0.734792 5.89762 0.684264 6.02738C0.633737 6.15714 0.626909 6.29984 0.664818 6.43383C0.702726 6.56782 0.783302 6.6858 0.894323 6.76985C1.00534 6.85391 1.14075 6.89946 1.28 6.8996ZM4.48 6.8996H7.04V12.0196H4.48V6.8996ZM10.88 6.8996V12.0196H8.32V6.8996H10.88ZM14.72 12.0196H12.16V6.8996H14.72V12.0196ZM9.6 1.8908L15.6592 5.6196H3.5408L9.6 1.8908ZM19.2 15.86C19.2 16.0297 19.1326 16.1925 19.0125 16.3125C18.8925 16.4326 18.7297 16.5 18.56 16.5H0.64C0.470261 16.5 0.307475 16.4326 0.187452 16.3125C0.0674284 16.1925 0 16.0297 0 15.86C0 15.6903 0.0674284 15.5275 0.187452 15.4075C0.307475 15.2874 0.470261 15.22 0.64 15.22H18.56C18.7297 15.22 18.8925 15.2874 19.0125 15.4075C19.1326 15.5275 19.2 15.6903 19.2 15.86Z" fill="#313743"/>
</svg>
