<svg width="20" height="17" viewBox="0 0 20 17" fill="none" xmlns="http://www.w3.org/2000/svg">
<path d="M19.6278 7.48734C18.9127 6.46898 17.4883 6.26195 16.4449 7.02852C16.3218 7.12364 16.2456 7.12364 16.1225 7.03971C15.7356 6.77673 15.3136 6.55291 14.8798 6.36267C13.5609 5.78075 12.1776 5.46741 10.7297 5.39467C10.5597 5.38348 10.4308 5.39467 10.4835 5.15407C10.7942 3.81677 11.0932 2.47948 11.3804 1.14218C11.4214 0.946344 11.4859 0.901581 11.6852 0.946344C12.5879 1.13659 13.4965 1.32123 14.3992 1.49469C14.6102 1.53386 14.6923 1.62338 14.7392 1.82482C14.9678 2.75365 16.0053 3.24045 16.8787 2.84877C17.5117 2.56341 17.8459 2.00947 17.7873 1.33243C17.7404 0.756102 17.248 0.202159 16.6442 0.0510843C15.9994 -0.111182 15.3488 0.118229 14.956 0.666576C14.8623 0.795269 14.786 0.823246 14.6278 0.789674C13.5551 0.565859 12.4765 0.353235 11.398 0.135015C10.9466 0.0454889 10.8059 0.123824 10.7122 0.537882C10.378 2.03744 10.0322 3.537 9.72152 5.04216C9.6629 5.32752 9.54567 5.38348 9.27017 5.40026C7.32408 5.50098 5.50694 5.99337 3.87738 7.03971C3.73084 7.13483 3.6605 7.10685 3.53154 7.01173C2.5116 6.26195 1.08134 6.48017 0.372073 7.49293C-0.331333 8.48891 -0.00893846 9.82061 1.09893 10.4473C1.25133 10.5368 1.2865 10.6263 1.26892 10.783C1.22788 11.2306 1.24547 11.6783 1.35684 12.1147C1.69096 13.4296 2.52333 14.4144 3.64878 15.1866C5.53625 16.4847 7.6875 16.9771 9.9853 16.9995C10.6008 17.0051 11.2163 16.9659 11.8259 16.8764C13.6078 16.6078 15.2667 16.0483 16.6735 14.9404C18.0569 13.8493 18.8834 12.4952 18.7134 10.7159C18.7017 10.5704 18.772 10.5256 18.8775 10.4641C20.003 9.82621 20.3371 8.49451 19.6278 7.48734ZM5.0087 10.1395C5.0087 9.31703 5.7121 8.64558 6.57378 8.65118C7.412 8.65677 8.12127 9.32822 8.12713 10.1284C8.13299 10.9509 7.43545 11.6223 6.57378 11.6279C5.70038 11.6223 5.0087 10.9677 5.0087 10.1395ZM13.602 14.1794C13.051 14.6438 12.3827 14.8676 11.6793 15.0131C11.1283 15.125 10.5597 15.1754 9.93254 15.1866C9.00639 15.153 8.03334 15.0467 7.12478 14.6326C6.83169 14.4983 6.56205 14.3305 6.33345 14.1179C6.15173 13.95 6.12828 13.7598 6.28069 13.5695C6.42137 13.3961 6.66756 13.3737 6.85514 13.5359C7.48234 14.0731 8.26195 14.2466 9.05328 14.3529C10.1905 14.4983 11.31 14.4144 12.3886 14.0004C12.6465 13.9052 12.8751 13.7709 13.0861 13.5975C13.3382 13.3905 13.5551 13.3793 13.7309 13.5639C13.8951 13.7262 13.854 13.9668 13.602 14.1794ZM13.432 11.6223C12.5703 11.6223 11.8728 10.9453 11.8786 10.1228C11.8845 9.32262 12.5938 8.65118 13.4379 8.64558C14.2995 8.64558 14.9971 9.31703 14.9971 10.1395C14.9912 10.9677 14.2995 11.6279 13.432 11.6223Z" fill="#313743"/>
</svg>
