<svg width="19" height="14" viewBox="0 0 19 14" fill="none" xmlns="http://www.w3.org/2000/svg">
<path d="M18.1712 2.10399C17.9936 1.23764 17.3424 0.61882 16.5727 0.371292C15.2111 0 9.52784 0 9.52784 0C9.52784 0 3.90375 0 2.48293 0.371292C1.71332 0.61882 1.12131 1.23764 0.884502 2.10399C0.529297 3.52727 0.529297 6.62137 0.529297 6.62137C0.529297 6.62137 0.529297 9.71547 0.884502 11.2006C1.12131 12.0051 1.71332 12.6858 2.48293 12.8714C3.90375 13.2427 9.52784 13.2427 9.52784 13.2427C9.52784 13.2427 15.1519 13.2427 16.5727 12.8714C17.3424 12.6239 17.9344 12.0051 18.1712 11.2006C18.5264 9.71547 18.5264 6.62137 18.5264 6.62137C18.5264 6.62137 18.5856 3.52727 18.1712 2.10399Z" fill="#313743"/>
<path d="M7.69336 9.46769V3.83643L12.4294 6.62111L7.69336 9.46769Z" fill="white"/>
</svg>
