<svg width="22" height="15" viewBox="0 0 22 15" fill="none" xmlns="http://www.w3.org/2000/svg">
<path d="M20.8574 10.5H20.1074V6.79688C20.2602 6.87281 20.4159 6.94406 20.5762 7.00875C20.7598 7.07949 20.9638 7.07526 21.1443 6.99696C21.3248 6.91867 21.4673 6.77258 21.5411 6.59019C21.6149 6.40781 21.614 6.20373 21.5388 6.02195C21.4635 5.84018 21.3198 5.69526 21.1387 5.61844C20.1673 5.22852 19.3354 4.55609 18.7504 3.68814C18.1654 2.82019 17.8543 1.79667 17.8574 0.75C17.8574 0.551088 17.7784 0.360322 17.6378 0.21967C17.4971 0.0790178 17.3063 0 17.1074 0C16.9085 0 16.7177 0.0790178 16.5771 0.21967C16.4364 0.360322 16.3574 0.551088 16.3574 0.75C16.3574 2.14239 15.8043 3.47774 14.8197 4.46231C13.8352 5.44688 12.4998 6 11.1074 6C9.71504 6 8.37968 5.44688 7.39511 4.46231C6.41055 3.47774 5.85742 2.14239 5.85742 0.75C5.85742 0.551088 5.7784 0.360322 5.63775 0.21967C5.4971 0.0790178 5.30633 0 5.10742 0C4.90851 0 4.71774 0.0790178 4.57709 0.21967C4.43644 0.360322 4.35742 0.551088 4.35742 0.75C4.36052 1.79667 4.04945 2.82019 3.46447 3.68814C2.87949 4.55609 2.04751 5.22852 1.07617 5.61844C0.895041 5.69526 0.75135 5.84018 0.676074 6.02195C0.600798 6.20373 0.599965 6.40781 0.673756 6.59019C0.747546 6.77258 0.89005 6.91867 1.07055 6.99696C1.25105 7.07526 1.45508 7.07949 1.63867 7.00875C1.79898 6.94406 1.95461 6.87281 2.10742 6.79688V10.5H1.41367C0.822109 10.5 0.607422 10.9481 0.607422 11.25C0.607422 11.4489 0.686439 11.6397 0.827092 11.7803C0.967744 11.921 1.15851 12 1.35742 12H4.35742V14.25C4.35742 14.4489 4.43644 14.6397 4.57709 14.7803C4.71774 14.921 4.90851 15 5.10742 15C5.30633 15 5.4971 14.921 5.63775 14.7803C5.7784 14.6397 5.85742 14.4489 5.85742 14.25V12H16.3574V14.25C16.3574 14.4489 16.4364 14.6397 16.5771 14.7803C16.7177 14.921 16.9085 15 17.1074 15C17.3063 15 17.4971 14.921 17.6378 14.7803C17.7784 14.6397 17.8574 14.4489 17.8574 14.25V12H20.8574C21.0563 12 21.2471 11.921 21.3878 11.7803C21.5284 11.6397 21.6074 11.4489 21.6074 11.25C21.6074 11.0511 21.5284 10.8603 21.3878 10.7197C21.2471 10.579 21.0563 10.5 20.8574 10.5ZM5.85742 9.75C5.85742 9.94891 5.7784 10.1397 5.63775 10.2803C5.4971 10.421 5.30633 10.5 5.10742 10.5C4.90851 10.5 4.71774 10.421 4.57709 10.2803C4.43644 10.1397 4.35742 9.94891 4.35742 9.75V5.56406C4.35742 5.36515 4.43644 5.17438 4.57709 5.03373C4.71774 4.89308 4.90851 4.81406 5.10742 4.81406C5.30633 4.81406 5.4971 4.89308 5.63775 5.03373C5.7784 5.17438 5.85742 5.36515 5.85742 5.56406V9.75ZM9.60742 9.75C9.60742 9.94891 9.5284 10.1397 9.38775 10.2803C9.2471 10.421 9.05633 10.5 8.85742 10.5C8.65851 10.5 8.46774 10.421 8.32709 10.2803C8.18644 10.1397 8.10742 9.94891 8.10742 9.75V7.81406C8.10742 7.61515 8.18644 7.42438 8.32709 7.28373C8.46774 7.14308 8.65851 7.06406 8.85742 7.06406C9.05633 7.06406 9.2471 7.14308 9.38775 7.28373C9.5284 7.42438 9.60742 7.61515 9.60742 7.81406V9.75ZM14.1074 9.75C14.1074 9.94891 14.0284 10.1397 13.8878 10.2803C13.7471 10.421 13.5563 10.5 13.3574 10.5C13.1585 10.5 12.9677 10.421 12.8271 10.2803C12.6864 10.1397 12.6074 9.94891 12.6074 9.75V7.81406C12.6074 7.61515 12.6864 7.42438 12.8271 7.28373C12.9677 7.14308 13.1585 7.06406 13.3574 7.06406C13.5563 7.06406 13.7471 7.14308 13.8878 7.28373C14.0284 7.42438 14.1074 7.61515 14.1074 7.81406V9.75ZM17.8574 9.75C17.8574 9.94891 17.7784 10.1397 17.6378 10.2803C17.4971 10.421 17.3063 10.5 17.1074 10.5C16.9085 10.5 16.7177 10.421 16.5771 10.2803C16.4364 10.1397 16.3574 9.94891 16.3574 9.75V5.56406C16.3574 5.36515 16.4364 5.17438 16.5771 5.03373C16.7177 4.89308 16.9085 4.81406 17.1074 4.81406C17.3063 4.81406 17.4971 4.89308 17.6378 5.03373C17.7784 5.17438 17.8574 5.36515 17.8574 5.56406V9.75Z" fill="#313743"/>
</svg>
