<svg width="21" height="17" viewBox="0 0 21 17" fill="none" xmlns="http://www.w3.org/2000/svg">
<path d="M11.282 3.28356C11.3194 2.76627 11.4902 2.2675 11.7778 1.83594C12.0655 1.40438 12.4601 1.05477 12.9232 0.821253C13.3863 0.587733 13.9021 0.478277 14.4201 0.503569C14.9381 0.528862 15.4407 0.688038 15.8789 0.965561C15.9289 0.998336 15.9693 1.044 15.9956 1.09775C16.022 1.1515 16.0334 1.21136 16.0286 1.27103C16.0238 1.3307 16.0031 1.38799 15.9685 1.43687C15.9339 1.48575 15.8869 1.52442 15.8322 1.54881C15.0705 1.89149 14.424 2.44676 13.9702 3.14794C13.5165 3.84912 13.2748 4.66638 13.2742 5.50158C13.2742 5.59906 13.2742 5.69655 13.2842 5.79237C13.2888 5.85293 13.2768 5.9136 13.2494 5.96782C13.222 6.02203 13.1803 6.06774 13.1289 6.09999C13.0774 6.13224 13.0181 6.14982 12.9574 6.15082C12.8966 6.15182 12.8368 6.1362 12.7843 6.10566C12.2933 5.82478 11.8917 5.41078 11.6258 4.91144C11.36 4.41209 11.2408 3.84775 11.282 3.28356ZM20.6065 11.8848C20.6077 12.2657 20.5022 12.6393 20.3019 12.9633C20.1016 13.2873 19.8146 13.5487 19.4733 13.7179L19.4367 13.7346L16.2013 15.1127C16.1693 15.1268 16.1361 15.1379 16.1022 15.146L10.7696 16.4792C10.7168 16.4928 10.6625 16.4998 10.6079 16.5H1.94252C1.58895 16.5 1.24986 16.3595 0.999843 16.1095C0.749831 15.8595 0.609375 15.5204 0.609375 15.1669V11.834C0.609375 11.4804 0.749831 11.1413 0.999843 10.8913C1.24986 10.6413 1.58895 10.5009 1.94252 10.5009H4.33301L6.21774 8.6153C6.46487 8.36706 6.75875 8.17025 7.08239 8.03624C7.40603 7.90224 7.75302 7.8337 8.1033 7.83458H12.2744C12.6265 7.83454 12.974 7.91419 13.2909 8.06757C13.6079 8.22095 13.886 8.44408 14.1044 8.72022C14.3228 8.99637 14.4759 9.31838 14.5522 9.66211C14.6285 10.0058 14.626 10.3624 14.5449 10.705L18.031 9.90345C18.3345 9.82308 18.6524 9.81347 18.9602 9.87536C19.268 9.93725 19.5575 10.069 19.8063 10.2604C20.0551 10.4519 20.2567 10.6979 20.3954 10.9795C20.5342 11.2611 20.6064 11.5709 20.6065 11.8848ZM19.2734 11.8848C19.2733 11.7746 19.2478 11.6659 19.1989 11.5671C19.1499 11.4684 19.0789 11.3822 18.9913 11.3153C18.9037 11.2484 18.8019 11.2026 18.6938 11.1815C18.5856 11.1603 18.474 11.1643 18.3677 11.1933L18.3418 11.1999L12.7593 12.4839C12.7103 12.4948 12.6603 12.5004 12.6102 12.5006H9.94137C9.76458 12.5006 9.59504 12.4303 9.47003 12.3053C9.34503 12.1803 9.2748 12.0108 9.2748 11.834C9.2748 11.6572 9.34503 11.4877 9.47003 11.3627C9.59504 11.2377 9.76458 11.1674 9.94137 11.1674H12.2744C12.5395 11.1674 12.7939 11.0621 12.9814 10.8746C13.1689 10.6871 13.2742 10.4328 13.2742 10.1676C13.2742 9.9024 13.1689 9.64808 12.9814 9.46057C12.7939 9.27306 12.5395 9.16772 12.2744 9.16772H8.1033C7.92817 9.16716 7.75467 9.20142 7.59289 9.2685C7.43111 9.33559 7.28428 9.43416 7.16094 9.5585L5.27537 11.4432V15.1669H10.5246L15.7264 13.8662L18.8926 12.5181C19.0078 12.4574 19.1042 12.3662 19.1714 12.2546C19.2385 12.143 19.2738 12.0151 19.2734 11.8848ZM14.6074 5.50158C14.6074 6.09484 14.7833 6.67477 15.1129 7.16805C15.4425 7.66132 15.911 8.04579 16.4591 8.27282C17.0072 8.49985 17.6103 8.55925 18.1921 8.44351C18.774 8.32777 19.3085 8.04209 19.728 7.62259C20.1475 7.2031 20.4331 6.66862 20.5489 6.08676C20.6646 5.5049 20.6052 4.90179 20.3782 4.35369C20.1511 3.80559 19.7667 3.33712 19.2734 3.00753C18.7801 2.67793 18.2002 2.50201 17.6069 2.50201C16.8114 2.50201 16.0485 2.81803 15.4859 3.38056C14.9234 3.94309 14.6074 4.70604 14.6074 5.50158Z" fill="#343330"/>
</svg>
