<svg width="17" height="17" viewBox="0 0 17 17" fill="none" xmlns="http://www.w3.org/2000/svg">
<path d="M0.611698 7.56581C0.794021 6.03698 1.41934 4.5948 2.4107 3.41677C2.52039 3.28449 2.65648 3.17657 2.81026 3.0999C2.96405 3.02323 3.13214 2.9795 3.30379 2.97151C3.47544 2.96352 3.64687 2.99145 3.80712 3.0535C3.96736 3.11555 4.11289 3.21036 4.23439 3.33187L6.36988 5.5129C6.57554 5.71808 6.70157 5.9897 6.72546 6.27923C6.74936 6.56876 6.66955 6.85736 6.50031 7.09348C6.37211 7.27535 6.27557 7.47757 6.21475 7.6916C6.19544 7.75476 6.15638 7.81005 6.10331 7.84936C6.05025 7.88867 5.98598 7.90993 5.91994 7.91002H0.918863C0.875284 7.91009 0.832184 7.90093 0.792398 7.88315C0.752612 7.86537 0.717041 7.83937 0.688026 7.80685C0.65901 7.77434 0.637208 7.73605 0.624052 7.6945C0.610897 7.65296 0.606686 7.6091 0.611698 7.56581ZM9.30493 0.505645C9.13437 0.490772 8.96258 0.511528 8.80047 0.566596C8.63836 0.621664 8.48947 0.709841 8.36327 0.825526C8.23706 0.941211 8.13628 1.08188 8.06735 1.23859C7.99841 1.3953 7.96281 1.56464 7.96282 1.73585V4.87464C7.96068 5.16589 8.06248 5.44836 8.24991 5.6713C8.43734 5.89423 8.69812 6.04303 8.98541 6.09095C9.52638 6.1802 10.0223 6.44692 10.3949 6.84908C10.7676 7.25125 10.9958 7.76598 11.0437 8.31217C11.0915 8.85836 10.9562 9.40494 10.6592 9.86577C10.3621 10.3266 9.92015 10.6755 9.40294 10.8574C9.34274 10.8795 9.29078 10.9196 9.25407 10.9722C9.21736 11.0247 9.19767 11.0873 9.19765 11.1515V16.1857C9.19736 16.2294 9.20635 16.2727 9.22404 16.3127C9.24172 16.3526 9.2677 16.3884 9.30023 16.4176C9.33278 16.4468 9.37114 16.4687 9.41279 16.482C9.45445 16.4952 9.49844 16.4995 9.54186 16.4944C11.4681 16.2566 13.2436 15.3311 14.5417 13.8882C15.8398 12.4454 16.5731 10.5822 16.6067 8.64165C16.6645 4.45171 13.4571 0.877639 9.30493 0.505645ZM7.75058 10.8551C7.40546 10.732 7.09206 10.5336 6.83309 10.2744C6.57413 10.0152 6.37609 9.70156 6.25334 9.35631C6.2323 9.29509 6.1928 9.24188 6.14028 9.20401C6.08777 9.16615 6.02481 9.14548 5.96007 9.14485H0.918091C0.874455 9.14457 0.831257 9.15355 0.791344 9.17119C0.751432 9.18883 0.715712 9.21473 0.686541 9.24718C0.65737 9.27963 0.63541 9.3179 0.62211 9.35946C0.60881 9.40102 0.604472 9.44493 0.609382 9.48829C0.825566 11.2722 1.63354 12.9321 2.90417 14.2027C4.1748 15.4733 5.83472 16.2813 7.61861 16.4975C7.66197 16.5024 7.70587 16.4981 7.74743 16.4848C7.78899 16.4715 7.82726 16.4495 7.85971 16.4204C7.89217 16.3912 7.91807 16.3555 7.93571 16.3155C7.95334 16.2756 7.96232 16.2324 7.96204 16.1888V11.1515C7.96217 11.0862 7.94184 11.0225 7.90391 10.9693C7.86599 10.9162 7.81237 10.8762 7.75058 10.8551Z" fill="#313743"/>
</svg>
