<svg width="18" height="17" viewBox="0 0 18 17" fill="none" xmlns="http://www.w3.org/2000/svg">
<path d="M16.9023 2.53287C16.6768 2.30733 16.4091 2.12841 16.1145 2.00634C15.8198 1.88428 15.504 1.82145 15.1851 1.82145C14.8661 1.82145 14.5503 1.88428 14.2557 2.00634C13.961 2.12841 13.6933 2.30733 13.4678 2.53287C13.315 2.68562 13.1833 2.85815 13.0763 3.04585L10.9348 2.46154C10.9414 1.97843 10.8038 1.50433 10.5395 1.09989C10.2752 0.69544 9.8962 0.379034 9.45108 0.191142C9.00596 0.0032503 8.5149 -0.0475851 8.04073 0.0451386C7.56656 0.137862 7.13082 0.369929 6.78927 0.711655C6.42457 1.07721 6.18565 1.54933 6.10707 2.05968C6.02849 2.57003 6.11433 3.09215 6.35217 3.55048L3.77667 5.86874C3.30938 5.55989 2.74982 5.4218 2.1925 5.4778C1.63519 5.53379 1.11428 5.78044 0.717777 6.17607C0.274438 6.61605 0.0176856 7.20994 0.000880031 7.83432C-0.0159255 8.45869 0.208508 9.06554 0.627538 9.52873C1.04657 9.99191 1.62796 10.2758 2.2509 10.3215C2.87383 10.3671 3.4904 10.1709 3.97245 9.77374L9.28434 13.6711C9.11434 14.0968 9.0683 14.562 9.15155 15.0127C9.2348 15.4635 9.44393 15.8815 9.75476 16.2184C10.0656 16.5553 10.4654 16.7973 10.9081 16.9165C11.3507 17.0357 11.818 17.0271 12.256 16.8919C12.6939 16.7566 13.0847 16.5002 13.383 16.1522C13.6814 15.8042 13.8751 15.3788 13.9419 14.9253C14.0086 14.4719 13.9457 14.0087 13.7602 13.5895C13.5748 13.1703 13.2746 12.8121 12.8941 12.5564L14.9726 6.66856C15.0424 6.67463 15.1122 6.67766 15.182 6.67766C15.6622 6.67759 16.1316 6.53516 16.5308 6.26838C16.9301 6.0016 17.2413 5.62244 17.4251 5.17884C17.6088 4.73523 17.657 4.2471 17.5634 3.77613C17.4698 3.30517 17.2387 2.87252 16.8993 2.53287H16.9023ZM11.7521 12.1542C11.1226 12.0994 10.4965 12.2921 10.0068 12.6915L4.69486 8.79407C4.82359 8.46934 4.88113 8.12076 4.86359 7.77188C4.84604 7.423 4.75383 7.08195 4.59318 6.77176L7.16945 4.4535C7.4466 4.6372 7.75854 4.76202 8.08591 4.82022C8.41329 4.87843 8.74913 4.86878 9.07262 4.79187C9.39612 4.71496 9.70037 4.57244 9.96652 4.37313C10.2327 4.17382 10.4551 3.92197 10.6199 3.63319L12.756 4.2175C12.7502 4.62117 12.8452 5.01991 13.0323 5.37765C13.2194 5.73539 13.4927 6.04084 13.8275 6.26637L11.7521 12.1542Z" fill="#313743"/>
</svg>
