<svg width="20" height="15" viewBox="0 0 20 15" fill="none" xmlns="http://www.w3.org/2000/svg">
<path d="M14.6667 4.29734V3.83317C14.6667 1.74317 11.5142 0.166504 7.33333 0.166504C3.1525 0.166504 0 1.74317 0 3.83317V7.1665C0 8.90734 2.1875 10.2907 5.33333 10.7048V11.1665C5.33333 13.2565 8.48583 14.8332 12.6667 14.8332C16.8475 14.8332 20 13.2565 20 11.1665V7.83317C20 6.10817 17.8817 4.72317 14.6667 4.29734ZM4 9.07234C2.3675 8.6165 1.33333 7.86567 1.33333 7.1665V5.994C2.01333 6.47567 2.92417 6.864 4 7.12484V9.07234ZM10.6667 7.12484C11.7425 6.864 12.6533 6.47567 13.3333 5.994V7.1665C13.3333 7.86567 12.2992 8.6165 10.6667 9.07234V7.12484ZM9.33333 13.0723C7.70083 12.6165 6.66667 11.8657 6.66667 11.1665V10.819C6.88583 10.8273 7.1075 10.8332 7.33333 10.8332C7.65667 10.8332 7.9725 10.8223 8.2825 10.804C8.62688 10.9273 8.97767 11.0319 9.33333 11.1173V13.0723ZM9.33333 9.354C8.67117 9.45183 8.00268 9.50057 7.33333 9.49984C6.66398 9.50057 5.9955 9.45183 5.33333 9.354V7.3715C5.99648 7.45791 6.66458 7.50078 7.33333 7.49984C8.00209 7.50078 8.67019 7.45791 9.33333 7.3715V9.354ZM14.6667 13.354C13.3404 13.5484 11.9929 13.5484 10.6667 13.354V11.3665C11.3296 11.4556 11.9978 11.5002 12.6667 11.4998C13.3354 11.5008 14.0035 11.4579 14.6667 11.3715V13.354ZM18.6667 11.1665C18.6667 11.8657 17.6325 12.6165 16 13.0723V11.1248C17.0758 10.864 17.9867 10.4757 18.6667 9.994V11.1665Z" fill="#313743"/>
</svg>
